<?xml version="1.0" encoding="UTF-8" standalone="no"?>
<!-- Created with Inkscape (http://www.inkscape.org/) -->

<svg
   width="64pt"
   height="64pt"
   viewBox="0 0 22.577778 22.577778"
   version="1.1"
   id="svg831"
   inkscape:version="1.1.1 (3bf5ae0d25, 2021-09-20)"
   sodipodi:docname="Ex.svg"
   inkscape:export-filename="C:\Users\User\Desktop\CARLOS PROJECT\4. APRIL 1\Done\1 - Tomato.png"
   inkscape:export-xdpi="576"
   inkscape:export-ydpi="576"
   xmlns:inkscape="http://www.inkscape.org/namespaces/inkscape"
   xmlns:sodipodi="http://sodipodi.sourceforge.net/DTD/sodipodi-0.dtd"
   xmlns="http://www.w3.org/2000/svg"
   xmlns:svg="http://www.w3.org/2000/svg"
   xmlns:rdf="http://www.w3.org/1999/02/22-rdf-syntax-ns#"
   xmlns:cc="http://creativecommons.org/ns#"
   xmlns:dc="http://purl.org/dc/elements/1.1/">
  <defs
     id="defs825">
    <pattern
       id="EMFhbasepattern"
       patternUnits="userSpaceOnUse"
       width="6"
       height="6"
       x="0"
       y="0" />
    <pattern
       id="EMFhbasepattern-9"
       patternUnits="userSpaceOnUse"
       width="6"
       height="6"
       x="0"
       y="0" />
    <pattern
       id="EMFhbasepattern-0"
       patternUnits="userSpaceOnUse"
       width="6"
       height="6"
       x="0"
       y="0" />
    <pattern
       id="EMFhbasepattern-7"
       patternUnits="userSpaceOnUse"
       width="6"
       height="6"
       x="0"
       y="0" />
    <pattern
       id="EMFhbasepattern-2"
       patternUnits="userSpaceOnUse"
       width="6"
       height="6"
       x="0"
       y="0" />
    <pattern
       id="EMFhbasepattern-98"
       patternUnits="userSpaceOnUse"
       width="6"
       height="6"
       x="0"
       y="0" />
    <pattern
       id="EMFhbasepattern-6"
       patternUnits="userSpaceOnUse"
       width="6"
       height="6"
       x="0"
       y="0" />
    <pattern
       id="EMFhbasepattern-01"
       patternUnits="userSpaceOnUse"
       width="6"
       height="6"
       x="0"
       y="0" />
    <pattern
       id="EMFhbasepattern-07"
       patternUnits="userSpaceOnUse"
       width="6"
       height="6"
       x="0"
       y="0" />
    <pattern
       id="EMFhbasepattern-8"
       patternUnits="userSpaceOnUse"
       width="6"
       height="6"
       x="0"
       y="0" />
    <pattern
       id="EMFhbasepattern-4"
       patternUnits="userSpaceOnUse"
       width="6"
       height="6"
       x="0"
       y="0" />
    <pattern
       id="EMFhbasepattern-40"
       patternUnits="userSpaceOnUse"
       width="6"
       height="6"
       x="0"
       y="0" />
    <pattern
       id="EMFhbasepattern-08"
       patternUnits="userSpaceOnUse"
       width="6"
       height="6"
       x="0"
       y="0" />
    <pattern
       id="EMFhbasepattern-04"
       patternUnits="userSpaceOnUse"
       width="6"
       height="6"
       x="0"
       y="0" />
    <pattern
       id="EMFhbasepattern-014"
       patternUnits="userSpaceOnUse"
       width="6"
       height="6"
       x="0"
       y="0" />
    <pattern
       id="EMFhbasepattern-27"
       patternUnits="userSpaceOnUse"
       width="6"
       height="6"
       x="0"
       y="0" />
    <pattern
       id="EMFhbasepattern-09"
       patternUnits="userSpaceOnUse"
       width="6"
       height="6"
       x="0"
       y="0" />
    <pattern
       id="EMFhbasepattern-5"
       patternUnits="userSpaceOnUse"
       width="6"
       height="6"
       x="0"
       y="0" />
    <pattern
       id="EMFhbasepattern-018"
       patternUnits="userSpaceOnUse"
       width="6"
       height="6"
       x="0"
       y="0" />
  </defs>
  <sodipodi:namedview
     id="base"
     pagecolor="#ffffff"
     bordercolor="#666666"
     borderopacity="1.0"
     inkscape:pageopacity="0.0"
     inkscape:pageshadow="2"
     inkscape:zoom="6.4882571"
     inkscape:cx="31.749667"
     inkscape:cy="42.615451"
     inkscape:document-units="pt"
     inkscape:current-layer="layer1"
     showgrid="false"
     units="pt"
     inkscape:window-width="1920"
     inkscape:window-height="1001"
     inkscape:window-x="-9"
     inkscape:window-y="-9"
     inkscape:window-maximized="1"
     inkscape:pagecheckerboard="true"
     inkscape:showpageshadow="false"
     inkscape:object-paths="true"
     inkscape:snap-intersection-paths="true"
     inkscape:snap-smooth-nodes="true"
     inkscape:snap-midpoints="true"
     showguides="true"
     inkscape:snap-bbox="true"
     inkscape:bbox-nodes="true"
     inkscape:snap-nodes="false"
     inkscape:snap-global="true"
     inkscape:lockguides="true">
    <inkscape:grid
       type="xygrid"
       id="grid1378" />
    <sodipodi:guide
       position="0.97013831,21.607643"
       orientation="78.000048,0"
       id="guide1380"
       inkscape:locked="true" />
    <sodipodi:guide
       position="0.97013831,0.97013129"
       orientation="0,78.000005"
       id="guide1382"
       inkscape:locked="true" />
    <sodipodi:guide
       position="21.607639,0.97013129"
       orientation="-78.000048,0"
       id="guide1384"
       inkscape:locked="true" />
    <sodipodi:guide
       position="21.607639,21.607643"
       orientation="0,-78.000005"
       id="guide1386"
       inkscape:locked="true" />
  </sodipodi:namedview>
  <metadata
     id="metadata828">
    <rdf:RDF>
      <cc:Work
         rdf:about="">
        <dc:format>image/svg+xml</dc:format>
        <dc:type
           rdf:resource="http://purl.org/dc/dcmitype/StillImage" />
      </cc:Work>
    </rdf:RDF>
  </metadata>
  <g
     inkscape:label="Icon"
     inkscape:groupmode="layer"
     id="layer1"
     transform="translate(0,-274.42223)">
    <g
       id="g4361"
       style="display:inline;stroke-width:0.797379"
       transform="matrix(1.2541081,0,0,1.2541081,38.925163,-37.883761)">
      <path
         style="color:#000000;fill:#74a838;stroke-width:0.797379;stroke-linecap:round;stroke-linejoin:round;-inkscape-stroke:none"
         d="m -19.312543,253.26369 -2.255859,-2.27734 c -0.005,-0.005 -0.01024,-0.009 -0.01563,-0.0137 -2.430287,-2.04156 -6.297732,-0.81453 -6.814405,1.95118 l 2.205548,1.57116 z"
         id="path22058"
         sodipodi:nodetypes="cccccc" />
      <path
         id="path54333"
         style="fill:#6a9834;fill-opacity:1;stroke-width:3.01372;stroke-linecap:round;stroke-linejoin:round"
         d="m -92.775581,-88.324246 12.94336,-7.541015 -0.0625,-0.0625 c -3.430066,-3.643119 -7.581004,-6.757499 -12.578125,-5.787109 -3.214084,0.65635 -4.36455,1.752696 -7.640624,0.95117 -2.52792,-1.11315 -3.58889,-4.03702 -5.36719,-5.69141 -0.0973,-0.0887 -0.1992,-0.16996 -0.30664,-0.24609 l 1.9e-4,3e-5 c -0.72885,1.23612 -1.26072,2.61239 -1.54492,4.11328 z"
         transform="matrix(0.26458334,0,0,0.26458334,0,280.06666)"
         sodipodi:nodetypes="cccccccccc" />
      <path
         id="path64968"
         style="fill:#6a9834;fill-opacity:1;stroke-width:3.01372;stroke-linecap:round;stroke-linejoin:round"
         d="m -81.578116,-109.96096 c -0.83468,-0.71473 -1.717701,-1.32563 -2.634766,-1.83789 -7.568636,1.76504 -11.998119,4.34613 -12.64454,12.814475 l 23.865246,-2.318355 z"
         transform="matrix(0.26458334,0,0,0.26458334,0,280.06666)"
         sodipodi:nodetypes="ccccc" />
      <path
         style="color:#000000;fill:#9ccc65;stroke-width:0.797379;stroke-linecap:round;stroke-linejoin:round;-inkscape-stroke:none"
         d="m -25.695312,251.29102 c -0.309741,0.46461 -0.447091,1.10602 -0.373047,1.71484 0.07404,0.60882 0.39202,1.21442 1.03125,1.44531 0.138099,0.0503 0.290698,-0.0216 0.339843,-0.16015 0.04898,-0.13753 -0.02269,-0.28874 -0.160156,-0.3379 -0.419103,-0.15138 -0.627299,-0.53277 -0.685547,-1.01171 -0.05825,-0.47894 0.06769,-1.02829 0.28711,-1.35743 0.08146,-0.12135 0.0491,-0.28575 -0.07227,-0.36718 -0.145994,-0.0742 -0.292237,-0.0331 -0.367183,0.0742 z"
         id="path2371"
         sodipodi:nodetypes="cscccsccc" />
      <path
         id="path68829"
         style="fill:#7dc23d;fill-opacity:1;stroke-width:3.01372;stroke-linecap:round;stroke-linejoin:round"
         d="m -96.076172,-100.74414 c -0.647113,0.16249 -1.291234,0.26927 -2.029297,0.25781 0.578969,1.617903 1.697451,3.029262 3.476563,3.671877 a 1.0000006,1.0000006 0 0 0 1.285156,-0.605469 1.0000006,1.0000006 0 0 0 -0.605469,-1.277344 c -1.017887,-0.36766 -1.706256,-1.094104 -2.126953,-2.046874 z"
         transform="matrix(0.26458334,0,0,0.26458334,0,280.06666)" />
      <path
         style="color:#000000;fill:#74a838;stroke-width:0.797379;stroke-linecap:round;stroke-linejoin:round;-inkscape-stroke:none"
         d="m -19.457031,249.90238 c -1.398794,0.79848 -2.78469,0.94642 -4.009766,1.45703 -0.885031,0.38259 -1.577882,1.13973 -1.658203,2.54688 -4.3e-5,7.5e-4 4.3e-5,10e-4 0,0.002 l -0.3125,2.84571 c -0.01719,0.15905 0.109601,0.29686 0.269531,0.29296 l 7.882813,-0.2246 c 0.154558,-0.005 0.271714,-0.14131 0.253906,-0.29493 l -0.425781,-3.73047 c -0.0011,-0.0125 -0.0031,-0.0249 -0.0059,-0.0371 -0.133723,-0.51638 -0.235656,-1.11933 -0.419921,-1.65821 -0.412087,-0.82206 -0.829142,-1.58337 -1.574179,-1.19927 z"
         id="path21866"
         sodipodi:nodetypes="ccsccccccccc" />
      <path
         id="path54454"
         style="fill:#6a9834;fill-opacity:1;stroke-width:3.01372;stroke-linecap:round;stroke-linejoin:round"
         d="m -90.412109,-101.92578 c -0.735185,8.8e-4 -1.428393,0.0818 -2.060547,0.21094 -0.849923,0.17356 -1.552663,0.37638 -2.191406,0.56836 -0.149172,0.70248 -0.250423,1.459632 -0.296876,2.273433 -1.62e-4,0.0028 1.63e-4,0.0021 0,0.0059 l -1.18164,10.75586 a 1.0001006,1.0001006 0 0 0 1.019531,1.107422 l 23.414063,-0.666016 -8.185547,-8.257812 c -2.409362,-2.594873 -4.473308,-4.253127 -6.591797,-5.181647 -1.360153,-0.59612 -2.700473,-0.81786 -3.925781,-0.8164 z"
         transform="matrix(0.26458334,0,0,0.26458334,0,280.06666)" />
      <path
         id="path45963"
         style="fill:#6a9834;fill-opacity:1;stroke-width:0.797379;stroke-linecap:round;stroke-linejoin:round"
         d="m -17.463016,252.75981 c -0.08967,-0.34626 -0.165479,-0.73132 -0.260966,-1.11001 l -1e-6,-1e-5 c -0.559357,0.36084 -0.917415,0.87022 -1.225249,1.27796 -0.366794,0.48584 -0.69983,0.87684 -0.968933,1.02732 -0.60766,0.33981 -1.877931,0.51974 -3.095418,0.91985 -0.611465,0.20095 -1.24063,0.48204 -1.76165,0.97875 -0.269052,0.25649 -0.494088,0.57068 -0.661458,0.93224 0.002,0.14633 0.12239,0.26326 0.268717,0.26097 l 7.882724,-0.22428 z"
         sodipodi:nodetypes="cscscsscccc" />
      <path
         id="path9937"
         style="color:#000000;fill:#9ccc65;stroke-width:3.01372;stroke-linecap:round;stroke-linejoin:round;-inkscape-stroke:none"
         d="m -84.121089,-96.251993 c 0.849197,-1.544755 1.589891,-2.206994 2.25586,-2.548828 0.712773,-0.365859 1.456626,-0.395069 2.435546,-0.507813 0.978921,-0.11263 2.193443,-0.362513 3.337891,-1.300786 1.144445,-0.93815 2.195321,-2.47626 3.261719,-5.07812 0.205568,-0.50966 -0.03866,-1.08971 -0.546875,-1.29883 -0.541612,-0.16095 -1.064356,-0.0428 -1.304693,0.53906 v 2e-5 c -0.994885,2.42741 -1.909125,3.66329 -2.679687,4.29493 -0.770563,0.63167 -1.424772,0.757 -2.296875,0.85742 -1.554415,0.15363 -2.507023,0.42086 -3.681641,1.05078 0.320508,-1.6254 0.766865,-3.1254 1.732422,-4.07031 0.392186,-0.38574 0.39917,-1.01582 0.01563,-1.41016 -0.433798,-0.42335 -0.986871,-0.38438 -1.417969,-0.0215 -2.486845,2.43371 -2.433468,6.268723 -2.927734,8.640621 z"
         transform="matrix(0.26458334,0,0,0.26458334,0,280.06666)"
         sodipodi:nodetypes="csccccccsccccccc" />
      <path
         id="path56021"
         style="fill:#7dc23d;fill-opacity:1;stroke-width:3.01372;stroke-linecap:round;stroke-linejoin:round"
         d="m -84.121094,-96.251953 c 0.613283,-1.115608 1.168817,-1.767062 1.681641,-2.173828 -1.012694,-0.885728 -1.983116,-1.590739 -2.951172,-2.134769 -0.230925,1.265736 -0.344408,2.483477 -0.546875,3.455081 z"
         transform="matrix(0.26458334,0,0,0.26458334,0,280.06666)"
         sodipodi:nodetypes="ccccc" />
      <path
         style="color:#000000;fill:#9ccc65;stroke-width:0.797379;stroke-linecap:round;stroke-linejoin:round;-inkscape-stroke:none"
         d="m -28.708984,252.38476 c -1.219365,1.4916 -0.928174,3.74057 -0.02539,5.31835 0.01139,0.0192 0.02518,0.0369 0.04102,0.0527 l 4.27539,4.39062 c 0.100772,0.10353 0.265954,0.10709 0.371094,0.008 l 4.683594,-4.41211 c 0.108142,-0.10218 0.110808,-0.27341 0.0059,-0.37891 l -2.226562,-2.24805 c -0.610244,-0.65885 -1.098628,-1.03596 -1.546875,-1.23242 -0.448248,-0.19646 -0.85442,-0.1943 -1.212891,-0.12109 -0.716942,0.14641 -1.248246,0.50121 -2.291016,0.24609 -0.40097,-0.0981 -0.651667,-0.33707 -0.896484,-0.65039 -0.244817,-0.31332 -0.461046,-0.69549 -0.794922,-1 -0.136637,-0.11815 -0.307063,-0.0623 -0.382858,0.0272 z"
         id="path21661"
         sodipodi:nodetypes="ccccccccscsscc" />
      <path
         id="path46084"
         style="fill:#7dc23d;fill-opacity:1;stroke-width:3.01372;stroke-linecap:round;stroke-linejoin:round"
         d="m -81.576177,-94.304688 c -0.675215,-0.728996 -1.310044,-1.363862 -1.914062,-1.919921 h 5e-6 c -1.147584,0.299687 -2.324393,0.628581 -3.490235,1.011718 -2.311049,0.759496 -4.688993,1.82189 -6.658203,3.699219 -1.976054,1.88383 -3.328642,4.586918 -3.662109,7.839844 l 6.414059,15.974601 z"
         transform="matrix(0.26458334,0,0,0.26458334,0,280.06666)"
         sodipodi:nodetypes="cssssccc" />
      <path
         id="path22449"
         style="color:#000000;fill:#7dc23d;fill-opacity:1;stroke-width:3.01372;stroke-linecap:round;stroke-linejoin:round;-inkscape-stroke:none"
         d="m -90.886719,-67.699219 12.183594,-11.476562 c -0.995404,-1.673957 -2.344934,-3.517677 -4.580078,-4.720703 -5.561771,-2.993537 -10.901359,-2.304899 -15.183594,-2.289063 -7.635283,-0.491373 -8.357693,-1.807472 -12.660153,-5.001953 0.49575,2.370753 1.37932,4.6611 2.52539,6.664062 z"
         transform="matrix(0.26458334,0,0,0.26458334,0,280.06666)"
         sodipodi:nodetypes="ccscccc" />
      <path
         id="path9935"
         style="color:#000000;fill:#badb94;stroke-width:3.01372;stroke-linecap:round;stroke-linejoin:round;-inkscape-stroke:none"
         d="m -91.812498,-91.052737 c -2.32522,-0.287047 -4.80692,-0.06353 -7.039062,-0.173828 -2.63586,-0.130394 -4.74694,-0.629408 -6.10352,-2.613282 -0.40876,-0.544717 -0.95353,-0.488187 -1.38867,-0.257809 -0.45281,0.312595 -0.56801,0.932269 -0.25781,1.386718 1.7371,2.540366 4.50367,3.271235 7.22656,3.458985 -0.9612,0.416605 -1.81675,0.913347 -2.48047,1.517578 -0.40679,0.371515 -0.43648,1.00206 -0.0664,1.410156 0.37151,0.406793 1.00206,0.436488 1.41016,0.06641 0.773878,-0.704504 2.579682,-1.501447 4.488282,-2.023438 1.441001,-0.394076 2.960838,-0.659191 4.166016,-0.759766 z"
         transform="matrix(0.26458334,0,0,0.26458334,0,280.06666)"
         sodipodi:nodetypes="cccccccccccc" />
      <path
         id="path51791"
         style="fill:#9ccc65;fill-opacity:1;stroke-width:3.01372;stroke-linecap:round;stroke-linejoin:round"
         d="m -89.785164,-90.074221 c 0.02683,-0.551873 0.142897,-0.945839 -0.990235,-1.011719 0,0 -2.081625,-0.107419 -3.183585,-0.107419 -0.803471,0.831783 -1.490618,1.80684 -2.035157,2.904297 1.432312,-0.389685 2.939678,-0.652058 4.136719,-0.751954 z"
         transform="matrix(0.26458334,0,0,0.26458334,0,280.06666)"
         sodipodi:nodetypes="cccccc" />
      <path
         style="color:#000000;fill:#74a838;stroke-width:0.797379;stroke-linecap:round;stroke-linejoin:round;-inkscape-stroke:none"
         d="m -17.125,252.03711 c -0.572517,0.2654 -0.951796,0.78141 -1.320312,1.26953 -0.368517,0.48812 -0.725399,0.95392 -1.164063,1.19922 -0.803653,0.44941 -2.075683,0.59695 -3.207031,0.96875 -0.565675,0.1859 -1.101816,0.43399 -1.523438,0.83594 -0.42064,0.40101 -0.712087,0.96128 -0.783203,1.69922 -1.66e-4,0.002 -0.0018,0.002 -0.002,0.004 l -0.492187,4.00586 c -0.01594,0.12355 0.05645,0.24149 0.173828,0.2832 l 6.396484,2.25196 c 0.1309,0.0457 0.274917,-0.0173 0.330078,-0.14453 l 3.347656,-7.63672 c 0.0037,-0.008 0.007,-0.0168 0.0098,-0.0254 0.169963,-0.5179 0.33223,-1.27946 0.181641,-2.125 -0.150589,-0.84555 -0.625388,-1.7669 -1.675782,-2.55664 -0.08838,-0.0683 -0.167942,-0.0754 -0.271471,-0.0294 z"
         id="path21460"
         sodipodi:nodetypes="cscssccccccccscc" />
      <path
         id="path38747"
         style="fill:#6a9834;fill-opacity:1;stroke-width:0.797379;stroke-linecap:round;stroke-linejoin:round"
         d="m -15.141195,255.74101 c -1.456769,0.34426 -3.272606,0.89143 -4.237468,2.47944 -0.222549,0.36629 -0.396675,0.76414 -0.562756,1.10381 -0.166082,0.33966 -0.340228,0.61908 -0.427881,0.70486 -0.01942,0.019 -0.229319,0.14822 -0.50953,0.26407 -0.283416,0.11719 -0.671883,0.25597 -1.049031,0.53278 -0.795608,0.58395 -1.098466,1.46282 -1.181324,2.29857 l 4.062285,1.4304 a 0.26460996,0.26460996 0 0 0 0.330213,-0.14469 l 3.347599,-7.63674 a 0.26460996,0.26460996 0 0 0 0.0098,-0.0253 c 0.09021,-0.2749 0.177831,-0.61887 0.218075,-1.00718 z" />
      <path
         id="path22328"
         style="fill:#6a9834;fill-opacity:1;stroke-width:3.01372;stroke-linecap:round;stroke-linejoin:round"
         d="m -75.451146,-74.019467 c -0.888049,-0.858142 -1.72447,-2.447554 -2.759766,-4.302735 -1.041596,-1.866519 -2.449084,-4.162338 -5.072265,-5.574218 -3.556518,-1.696255 -5.630242,-2.359234 -11.019557,-2.365252 -0.324831,0.871152 -0.54804,1.834435 -0.650391,2.896485 -6.27e-4,0.0076 -0.0071,0.0081 -0.0078,0.01563 l -1.859374,15.140625 z"
         transform="matrix(0.26458334,0,0,0.26458334,0,280.06666)"
         sodipodi:nodetypes="cccccccc" />
      <path
         id="path9929"
         style="color:#000000;fill:#9ccc65;stroke-width:0.797379;stroke-linecap:round;stroke-linejoin:round;-inkscape-stroke:none"
         d="m -21.468495,259.08455 c 0.03872,-0.0572 0.08661,-0.09 0.156063,-0.1235 0.108543,-0.0524 0.278286,-0.0868 0.486275,-0.11938 0.415979,-0.0652 0.992542,-0.14144 1.476396,-0.61495 0.103753,-0.10207 0.105585,-0.26877 0.0041,-0.3731 -0.122196,-0.10582 -0.270977,-0.11401 -0.375171,-0.004 -0.356986,0.34935 -0.762664,0.40422 -1.187525,0.47077 -0.138963,0.0218 -0.279238,0.0425 -0.417545,0.0822 0.09139,-0.2443 0.220869,-0.44724 0.378788,-0.62683 0.301697,-0.3431 0.721767,-0.59777 1.200961,-0.82424 0.958388,-0.45294 2.146256,-0.76666 2.918168,-1.62523 0.09738,-0.10853 0.0886,-0.27539 -0.01964,-0.3731 -0.112616,-0.0965 -0.273657,-0.0938 -0.37303,0.0195 -0.627342,0.69776 -1.733908,1.01911 -2.75177,1.50016 -0.540607,0.26628 -1.051052,0.58974 -1.394233,0.97722 -0.06489,-0.36178 -0.223595,-0.69681 -0.50643,-0.97359 -0.123144,-0.11175 -0.265701,-0.0878 -0.373103,0.004 -0.102868,0.10457 -0.101029,0.27287 0.0041,0.37517 0.466028,0.45605 0.477379,1.14788 0.214457,1.91978 z"
         sodipodi:nodetypes="ccccccccsscccccccccc" />
      <path
         id="path35815"
         style="fill:#7dc23d;fill-opacity:1;stroke-width:3.01372;stroke-linecap:round;stroke-linejoin:round"
         d="m -83.017578,-78.447266 1.876956,-0.855468 c 0.146343,-0.216189 0.327344,-0.340183 0.589844,-0.466797 0.301842,-0.145717 0.730322,-0.253193 1.248047,-0.34961 -0.813902,-1.213767 -1.852131,-2.436014 -3.3125,-3.378906 h -3e-6 c -0.05504,0.95078 -0.278102,1.968762 -0.638672,3.027344 z"
         transform="matrix(0.26458334,0,0,0.26458334,0,280.06666)"
         sodipodi:nodetypes="ccccsscc" />
      <path
         style="color:#000000;fill:#74a838;stroke-width:0.797379;stroke-linecap:round;stroke-linejoin:round;-inkscape-stroke:none"
         d="m -29.978516,256.5957 c -0.477282,1.74315 -0.08295,4.12961 1.203125,6.11133 1.286071,1.98172 3.497356,3.54883 6.619141,3.54883 0.113906,5.8e-4 0.215399,-0.0718 0.251953,-0.17969 l 1.638672,-4.9375 c 0.03218,-0.0963 0.0064,-0.20259 -0.06641,-0.27344 -0.33189,-0.32072 -0.560785,-0.78615 -0.826172,-1.26171 -0.265387,-0.47557 -0.577526,-0.96886 -1.128906,-1.26563 -1.316668,-0.70868 -2.583645,-0.54734 -3.763672,-0.54297 -1.180028,0.004 -2.27436,-0.11446 -3.486328,-1.3164 -0.15202,-0.15393 -0.382864,-0.12072 -0.441403,0.11718 z"
         id="path21255"
         sodipodi:nodetypes="csccccscccc" />
      <path
         id="path42750"
         style="color:#000000;fill:#6a9834;fill-opacity:1;stroke-width:0.797379;stroke-linecap:round;stroke-linejoin:round;-inkscape-stroke:none"
         d="m -20.332092,260.8651 c -0.175263,-0.16936 -0.32156,-0.37953 -0.45992,-0.60978 l -1e-6,1.5e-4 c -1.828949,0.59575 -2.305559,1.88051 -2.343013,3.30727 -0.01753,0.9093 0.155418,1.81628 0.269235,2.66533 0.230972,0.0183 0.467604,0.0274 0.709518,0.0274 z"
         sodipodi:nodetypes="ccccccc" />
      <path
         id="path9927"
         style="color:#000000;fill:#9ccc65;stroke-width:3.01372;stroke-linecap:round;stroke-linejoin:round;-inkscape-stroke:none"
         d="m -99.197266,-78.056641 c 0.01069,0.549233 0.462421,0.98701 1.011719,0.980469 0.702913,-0.01134 1.222939,0.22562 1.771485,0.703125 0.548545,0.477619 1.077209,1.218345 1.585937,2.074219 0.21811,0.36695 0.429128,0.753155 0.640625,1.148437 -0.0045,-0.002 -0.0092,-0.0038 -0.01367,-0.0059 -0.0045,-0.0026 -0.0091,-0.0052 -0.01367,-0.0078 -2.016434,-0.865626 -3.955396,-0.982584 -5.677734,-1.240235 -1.722346,-0.257764 -3.204956,-0.610662 -4.656256,-1.822265 -0.60019,-0.383528 -0.95497,-0.255366 -1.41015,0.125 -0.35548,0.423735 -0.29947,1.055558 0.125,1.410156 1.83093,1.528554 3.81294,1.991344 5.64648,2.265625 1.833536,0.274393 3.540683,0.397134 5.181645,1.101562 1.561426,0.699335 3.11873,1.969118 4.810547,3.285157 -3.496886,-0.435859 -5.478376,0.04201 -8.507813,1.283203 -0.506796,0.223513 -0.735366,0.816395 -0.509766,1.322265 0.223513,0.506796 0.816396,0.735367 1.322266,0.509766 4.967709,-2.222778 8.249167,-1.49455 13.042969,0.738281 0.352613,0.161295 0.766686,0.104208 1.0625,-0.146484 0.339098,-0.05922 0.623901,-0.288685 0.753906,-0.607422 0.204688,-0.511825 -0.04341,-1.092767 -0.554688,-1.298828 -2.350685,-0.933312 -4.453752,-2.7971 -6.677734,-4.470703 -0.914854,-0.975222 -1.801255,-2.863288 -2.84375,-4.617188 -0.557132,-0.937323 -1.176084,-1.840482 -1.99414,-2.552734 -0.81806,-0.712252 -1.888283,-1.216466 -2.777926,-1.20151 -0.889643,0.01496 -1.328675,0.471478 -1.317782,1.023804 z"
         transform="matrix(0.26458334,0,0,0.26458334,0,280.06666)"
         sodipodi:nodetypes="cccsccccccccccccccccccsscc" />
      <path
         id="path44549"
         style="color:#000000;fill:#7dc23d;fill-opacity:1;stroke-width:3.01372;stroke-linecap:round;stroke-linejoin:round;-inkscape-stroke:none"
         d="m -86.488281,-67.859375 c -0.32679,0.871348 -0.552862,1.770941 -0.703125,2.669922 0.748321,0.286864 1.522785,0.621522 2.34375,1.003906 a 1.0000006,1.0000006 0 0 0 1.0625,-0.146484 1.0000006,1.0000006 0 0 0 0.753906,-0.607422 1.0000006,1.0000006 0 0 0 -0.554688,-1.298828 c -1.003464,-0.398414 -1.960457,-0.970739 -2.902343,-1.621094 z"
         transform="matrix(0.26458334,0,0,0.26458334,0,280.06666)" />
      <path
         style="color:#000000;fill:#9ccc65;stroke-width:0.797379;stroke-linecap:round;stroke-linejoin:round;-inkscape-stroke:none"
         d="m -14.269531,256.13477 c -1.530668,0.35381 -3.646149,0.79496 -4.613281,2.38671 -0.388494,0.63941 -0.687223,1.53742 -1.080079,1.92188 -0.497306,0.39113 -1.149977,0.5108 -1.621093,0.84961 -0.741481,0.54422 -0.956727,1.416 -0.970703,2.2793 -0.01398,0.86329 0.159567,1.7577 0.234375,2.44921 0.01531,0.13313 0.127717,0.23379 0.261718,0.23438 2.017441,0 4.189327,-0.63373 5.791016,-2.20117 1.601689,-1.56744 2.605088,-4.06055 2.320312,-7.6836 -0.01322,-0.16038 -0.165332,-0.27193 -0.322265,-0.23632 z"
         id="path21063"
         sodipodi:nodetypes="csccsccscc" />
      <path
         id="path9917"
         style="color:#000000;fill:#badb94;stroke-width:3.01372;stroke-linecap:round;stroke-linejoin:round;-inkscape-stroke:none"
         d="m -60.294922,-79.378906 c -1.336171,2.8633 -2.966106,4.583518 -4.960937,6.46289 -0.01825,-1.751715 0.18717,-3.482468 0.789065,-4.707031 0.24925,-0.492952 0.05161,-1.094623 -0.440596,-1.343238 -0.492204,-0.248616 -1.093318,-0.05378 -1.34456,0.437035 -0.926154,1.815345 -0.912508,3.574397 -0.974609,4.982422 -0.06063,1.37465 -0.154894,2.334741 -0.917969,3.179687 -3.005541,2.56566 -6.248772,5.133464 -8.917969,7.652344 0.02667,-0.976659 0.07494,-2.015199 0.142577,-2.941406 0.09842,-0.604913 0.262719,-1.000541 0.605469,-1.335938 0.397377,-0.386603 0.404388,-1.022699 0.01563,-1.417968 -0.352334,-0.346092 -0.99419,-0.363026 -1.410163,-0.01367 -0.716584,0.701253 -1.050661,1.598284 -1.189454,2.451172 -0.268238,2.058863 0.335718,4.32851 -0.93164,6.125 -2.031806,2.481955 -3.234413,4.697404 -4.109375,7.464844 0.16633,0.117662 0.364628,0.181717 0.568359,0.183593 0.490727,0 0.983684,-0.0092 1.478516,-0.0293 1.431129,-4.244574 4.402761,-7.836766 7.49418,-10.179683 1.319739,-0.984417 3.305022,-1.697796 5.347657,-2.273438 2.420897,-0.682204 4.848347,-1.137495 6.511719,-2.177734 0.469527,-0.293343 0.611363,-0.912344 0.316406,-1.380859 -0.293044,-0.464757 -0.906159,-0.606044 -1.373047,-0.316407 -1.052636,0.658296 -3.42617,1.227717 -5.886719,1.917969 2.277535,-1.91057 4.653047,-3.867033 6.640625,-5.816406 2.123441,-2.092044 3.811211,-4.149461 4.466797,-6.363281 0.153557,-0.529556 -0.150493,-1.083485 -0.698112,-1.347068 -0.54762,-0.263583 -1.094704,0.352215 -1.22185,0.786473 z"
         transform="matrix(0.26458334,0,0,0.26458334,0,280.06666)"
         sodipodi:nodetypes="cccccsccccccccccccsccccccccc" />
    </g>
  </g>
</svg>
